<svg width="16" height="16" viewBox="0 0 16 16" fill="none" xmlns="http://www.w3.org/2000/svg">
    <path fill-rule="evenodd" clip-rule="evenodd" d="M8.40921 0.80718C8.16847 0.619937 7.83137 0.619937 7.59063 0.80718L1.59062 5.47385C1.42823 5.60015 1.33325 5.79435 1.33325 6.00008V13.3334C1.33325 13.8638 1.54397 14.3726 1.91904 14.7476C2.29411 15.1227 2.80282 15.3334 3.33325 15.3334H5.99992H9.99992H12.6666C13.197 15.3334 13.7057 15.1227 14.0808 14.7476C14.4559 14.3726 14.6666 13.8638 14.6666 13.3334V6.00008C14.6666 5.79435 14.5716 5.60015 14.4092 5.47385L8.40921 0.80718ZM10.6666 14.0001H12.6666C12.8434 14.0001 13.013 13.9298 13.138 13.8048C13.263 13.6798 13.3333 13.5102 13.3333 13.3334V6.32614L7.99992 2.17799L2.66659 6.32614V13.3334C2.66659 13.5102 2.73682 13.6798 2.86185 13.8048C2.98687 13.9298 3.15644 14.0001 3.33325 14.0001H5.33325V8.00008C5.33325 7.63189 5.63173 7.33342 5.99992 7.33342H9.99992C10.3681 7.33342 10.6666 7.63189 10.6666 8.00008V14.0001ZM6.66659 14.0001V8.66675H9.33325V14.0001H6.66659Z" fill="#212529"/>
    </svg>
    