<svg width="32" height="32" viewBox="0 0 32 32" fill="none" xmlns="http://www.w3.org/2000/svg">
    <path d="M22.666 2.66675H9.33268C7.85992 2.66675 6.66602 3.86066 6.66602 5.33341V26.6667C6.66602 28.1395 7.85992 29.3334 9.33268 29.3334H22.666C24.1388 29.3334 25.3327 28.1395 25.3327 26.6667V5.33341C25.3327 3.86066 24.1388 2.66675 22.666 2.66675Z" stroke="black" stroke-linecap="round" stroke-linejoin="round"/>
    <line x1="7" y1="7.5" x2="25" y2="7.5" stroke="black"/>
    <line x1="7" y1="25.5" x2="25" y2="25.5" stroke="black"/>
    <path d="M16 10V21.3333" stroke="black" stroke-linecap="round" stroke-linejoin="round"/>
    <path d="M18.8329 11.7H14.5829C14.0569 11.7 13.5525 11.9089 13.1805 12.2809C12.8086 12.6528 12.5996 13.1573 12.5996 13.6833C12.5996 14.2093 12.8086 14.7138 13.1805 15.0857C13.5525 15.4577 14.0569 15.6666 14.5829 15.6666H17.4163C17.9423 15.6666 18.4468 15.8756 18.8187 16.2475C19.1907 16.6195 19.3996 17.1239 19.3996 17.65C19.3996 18.176 19.1907 18.6804 18.8187 19.0524C18.4468 19.4243 17.9423 19.6333 17.4163 19.6333H12.5996" stroke="black" stroke-linecap="round" stroke-linejoin="round"/>
</svg>