<svg width="16" height="16" viewBox="0 0 16 16" fill="none" xmlns="http://www.w3.org/2000/svg">
    <path d="M8.00001 12.6667C6.46668 12.6667 3.73334 12.5334 2.60001 12.2667C2.13334 12.1334 1.80001 11.8 1.66668 11.3334C1.46668 10.6 1.33334 9.06671 1.33334 8.00004C1.33334 6.93337 1.46668 5.40004 1.66668 4.66671C1.80001 4.20004 2.13334 3.86671 2.60001 3.73337C3.73334 3.46671 6.46668 3.33337 8.00001 3.33337C9.53334 3.33337 12.2667 3.46671 13.4 3.73337C13.8667 3.86671 14.2 4.20004 14.3333 4.66671C14.5333 5.40004 14.6667 6.93337 14.6667 8.00004C14.6667 9.06671 14.5333 10.6 14.3333 11.3334C14.2 11.8 13.8667 12.1334 13.4 12.2667C12.2667 12.5334 9.53334 12.6667 8.00001 12.6667V12.6667Z" stroke="#212529" stroke-linecap="round" stroke-linejoin="round"/>
    <path d="M6.66666 10L9.99999 8L6.66666 6V10Z" stroke="#212529" stroke-linecap="round" stroke-linejoin="round"/>
    </svg>
    