<svg width="24" height="24" viewBox="0 0 24 24" fill="none" xmlns="http://www.w3.org/2000/svg">
    <path d="M19.6481 4.7037C19.8425 4.7037 20 4.54617 20 4.35185C20 4.15753 19.8425 4 19.6481 4H4.35185C4.15753 4 4 4.15753 4 4.35185C4 4.54617 4.15753 4.7037 4.35185 4.7037H5.32132L5.18367 5.12733H4.69931L5.09117 5.41203L4.94149 5.87268L5.33335 5.58798L5.72521 5.87268L5.57553 5.41203L5.96739 5.12733H5.48303L5.34538 4.7037H8.65463L8.51699 5.12733H8.03263L8.42449 5.41203L8.27481 5.87268L8.66667 5.58798L9.05852 5.87268L8.90885 5.41203L9.3007 5.12733H8.81634L8.6787 4.7037H11.988L11.8503 5.12733H11.3659L11.7578 5.41203L11.6081 5.87268L12 5.58798L12.3918 5.87268L12.2422 5.41203L12.634 5.12733H12.1497L12.012 4.7037H15.3213L15.1837 5.12733H14.6993L15.0912 5.41203L14.9415 5.87268L15.3334 5.58798L15.7252 5.87268L15.5755 5.41203L15.9674 5.12733H15.483L15.3454 4.7037H18.6546L18.517 5.12733H18.0326L18.4245 5.41203L18.2748 5.87268L18.6667 5.58798L19.0585 5.87268L18.9088 5.41203L19.3007 5.12733H18.8163L18.6787 4.7037H19.6481Z" fill="#212529"/>
    <path d="M19.6481 8.7037C19.8425 8.7037 20 8.54617 20 8.35185C20 8.15753 19.8425 8 19.6481 8H4.35185C4.15753 8 4 8.15753 4 8.35185C4 8.54617 4.15753 8.7037 4.35185 8.7037H6L6 18.3148C6 18.5091 6.15753 18.6667 6.35185 18.6667C6.54617 18.6667 6.7037 18.5091 6.7037 18.3148L6.7037 8.7037H8L8 20H10.8148L10.8148 8.7037H13.3333L13.3333 20H16.1481V8.7037H17.3333L17.3333 18.3148C17.3333 18.5091 17.4908 18.6667 17.6852 18.6667C17.8795 18.6667 18.037 18.5091 18.037 18.3148V8.7037H19.6481Z" fill="#212529"/>
    <path d="M20 6.7037C20 7.09235 19.6849 7.40741 19.2963 7.40741H4.7037C4.31506 7.40741 4 7.09235 4 6.7037C4 6.31506 4.31506 6 4.7037 6H19.2963C19.6849 6 20 6.31506 20 6.7037Z" fill="#212529"/>
    <path fill-rule="evenodd" clip-rule="evenodd" d="M0 0H12V1.5H1.5V12H0V0ZM22.5 22.5V12H24V24H12V22.5H22.5Z" fill="#212529"/>
    </svg>
    